<svg xmlns="http://www.w3.org/2000/svg" xmlns:xlink="http://www.w3.org/1999/xlink" width="1080" zoomAndPan="magnify" viewBox="0 0 810 809.999993" height="1080" preserveAspectRatio="xMidYMid meet" version="1.0">
<defs>
<g/>
</defs>
<path fill="#ffed00" d="M 83.25 403.757812 C 83.25 398.488281 83.378906 393.226562 83.640625 387.960938 C 83.898438 382.699219 84.285156 377.449219 84.800781 372.207031 C 85.316406 366.964844 85.960938 361.738281 86.734375 356.527344 C 87.507812 351.3125 88.410156 346.125 89.4375 340.957031 C 90.464844 335.792969 91.617188 330.652344 92.898438 325.542969 C 94.179688 320.433594 95.585938 315.355469 97.113281 310.316406 C 98.644531 305.273438 100.296875 300.273438 102.070312 295.3125 C 103.84375 290.351562 105.742188 285.441406 107.757812 280.574219 C 109.773438 275.707031 111.910156 270.890625 114.160156 266.128906 C 116.414062 261.367188 118.78125 256.660156 121.265625 252.015625 C 123.75 247.371094 126.347656 242.789062 129.054688 238.269531 C 131.761719 233.75 134.582031 229.300781 137.507812 224.921875 C 140.4375 220.539062 143.46875 216.234375 146.605469 212.003906 C 149.746094 207.773438 152.988281 203.621094 156.328125 199.546875 C 159.671875 195.476562 163.113281 191.488281 166.648438 187.585938 C 170.1875 183.679688 173.820312 179.867188 177.546875 176.140625 C 181.273438 172.417969 185.085938 168.785156 188.992188 165.246094 C 192.894531 161.710938 196.882812 158.269531 200.957031 154.925781 C 205.027344 151.585938 209.179688 148.34375 213.414062 145.207031 C 217.644531 142.070312 221.953125 139.035156 226.332031 136.109375 C 230.714844 133.183594 235.164062 130.363281 239.683594 127.65625 C 244.203125 124.949219 248.785156 122.351562 253.429688 119.867188 C 258.078125 117.386719 262.78125 115.019531 267.546875 112.765625 C 272.308594 110.511719 277.125 108.378906 281.992188 106.363281 C 286.859375 104.347656 291.773438 102.453125 296.734375 100.675781 C 301.695312 98.902344 306.699219 97.25 311.738281 95.71875 C 316.78125 94.191406 321.859375 92.785156 326.96875 91.507812 C 332.078125 90.226562 337.21875 89.074219 342.386719 88.046875 C 347.554688 87.015625 352.742188 86.117188 357.957031 85.34375 C 363.167969 84.570312 368.394531 83.925781 373.636719 83.410156 C 378.882812 82.894531 384.136719 82.507812 389.398438 82.246094 C 394.660156 81.988281 399.925781 81.859375 405.195312 81.859375 C 410.464844 81.859375 415.730469 81.988281 420.992188 82.246094 C 426.253906 82.507812 431.507812 82.894531 436.75 83.410156 C 441.992188 83.925781 447.222656 84.570312 452.433594 85.34375 C 457.644531 86.117188 462.835938 87.015625 468.003906 88.046875 C 473.171875 89.074219 478.308594 90.226562 483.421875 91.507812 C 488.53125 92.785156 493.609375 94.191406 498.648438 95.71875 C 503.691406 97.25 508.691406 98.902344 513.652344 100.675781 C 518.613281 102.453125 523.527344 104.347656 528.398438 106.363281 C 533.265625 108.378906 538.078125 110.511719 542.84375 112.765625 C 547.605469 115.019531 552.3125 117.386719 556.957031 119.867188 C 561.605469 122.351562 566.1875 124.949219 570.707031 127.65625 C 575.226562 130.363281 579.675781 133.183594 584.054688 136.109375 C 588.4375 139.035156 592.742188 142.070312 596.976562 145.207031 C 601.207031 148.34375 605.359375 151.585938 609.433594 154.925781 C 613.507812 158.269531 617.496094 161.710938 621.398438 165.246094 C 625.300781 168.785156 629.117188 172.417969 632.84375 176.140625 C 636.570312 179.867188 640.199219 183.679688 643.738281 187.585938 C 647.277344 191.488281 650.71875 195.476562 654.058594 199.546875 C 657.402344 203.621094 660.644531 207.773438 663.78125 212.003906 C 666.921875 216.234375 669.953125 220.539062 672.878906 224.921875 C 675.808594 229.300781 678.625 233.75 681.335938 238.269531 C 684.042969 242.789062 686.640625 247.371094 689.125 252.015625 C 691.605469 256.664062 693.976562 261.367188 696.226562 266.128906 C 698.480469 270.890625 700.613281 275.707031 702.632812 280.574219 C 704.648438 285.441406 706.542969 290.351562 708.316406 295.3125 C 710.09375 300.273438 711.746094 305.273438 713.273438 310.316406 C 714.804688 315.355469 716.210938 320.433594 717.488281 325.542969 C 718.769531 330.652344 719.925781 335.792969 720.953125 340.957031 C 721.980469 346.125 722.878906 351.3125 723.652344 356.527344 C 724.425781 361.738281 725.070312 366.964844 725.585938 372.207031 C 726.105469 377.449219 726.492188 382.699219 726.75 387.964844 C 727.007812 393.226562 727.136719 398.488281 727.136719 403.757812 C 727.136719 409.027344 727.007812 414.289062 726.75 419.550781 C 726.492188 424.8125 726.105469 430.066406 725.585938 435.308594 C 725.070312 440.550781 724.425781 445.777344 723.652344 450.988281 C 722.878906 456.199219 721.980469 461.390625 720.953125 466.558594 C 719.921875 471.722656 718.769531 476.863281 717.488281 481.972656 C 716.210938 487.082031 714.804688 492.160156 713.273438 497.199219 C 711.746094 502.242188 710.09375 507.242188 708.316406 512.203125 C 706.542969 517.160156 704.648438 522.074219 702.632812 526.941406 C 700.613281 531.808594 698.480469 536.625 696.226562 541.386719 C 693.976562 546.148438 691.605469 550.851562 689.125 555.5 C 686.640625 560.144531 684.042969 564.726562 681.335938 569.246094 C 678.625 573.765625 675.808594 578.214844 672.878906 582.59375 C 669.953125 586.976562 666.921875 591.28125 663.78125 595.511719 C 660.644531 599.742188 657.402344 603.894531 654.058594 607.96875 C 650.71875 612.039062 647.277344 616.027344 643.738281 619.929688 C 640.199219 623.835938 636.570312 627.648438 632.84375 631.375 C 629.117188 635.097656 625.300781 638.730469 621.398438 642.269531 C 617.496094 645.804688 613.507812 649.246094 609.433594 652.589844 C 605.359375 655.929688 601.207031 659.171875 596.976562 662.308594 C 592.742188 665.445312 588.4375 668.480469 584.054688 671.40625 C 579.675781 674.332031 575.226562 677.148438 570.707031 679.859375 C 566.1875 682.566406 561.605469 685.164062 556.957031 687.644531 C 552.3125 690.128906 547.605469 692.496094 542.84375 694.75 C 538.078125 697.003906 533.265625 699.136719 528.398438 701.152344 C 523.527344 703.167969 518.613281 705.0625 513.652344 706.839844 C 508.691406 708.613281 503.691406 710.265625 498.648438 711.792969 C 493.609375 713.324219 488.53125 714.730469 483.421875 716.007812 C 478.308594 717.289062 473.171875 718.441406 468.003906 719.46875 C 462.835938 720.496094 457.644531 721.398438 452.433594 722.171875 C 447.222656 722.945312 441.992188 723.589844 436.75 724.105469 C 431.507812 724.621094 426.253906 725.007812 420.992188 725.269531 C 415.730469 725.527344 410.464844 725.65625 405.195312 725.65625 C 399.925781 725.65625 394.660156 725.527344 389.398438 725.269531 C 384.136719 725.007812 378.882812 724.621094 373.636719 724.105469 C 368.394531 723.589844 363.167969 722.945312 357.957031 722.171875 C 352.742188 721.398438 347.554688 720.496094 342.386719 719.46875 C 337.21875 718.441406 332.078125 717.289062 326.96875 716.007812 C 321.859375 714.730469 316.78125 713.324219 311.738281 711.792969 C 306.699219 710.265625 301.695312 708.613281 296.734375 706.839844 C 291.773438 705.0625 286.859375 703.167969 281.992188 701.152344 C 277.125 699.136719 272.308594 697.003906 267.546875 694.75 C 262.78125 692.496094 258.078125 690.128906 253.429688 687.644531 C 248.785156 685.164062 244.203125 682.566406 239.683594 679.859375 C 235.164062 677.148438 230.714844 674.332031 226.332031 671.40625 C 221.953125 668.480469 217.644531 665.445312 213.414062 662.308594 C 209.179688 659.171875 205.027344 655.929688 200.957031 652.589844 C 196.882812 649.246094 192.894531 645.804688 188.992188 642.269531 C 185.085938 638.730469 181.273438 635.097656 177.546875 631.375 C 173.820312 627.648438 170.1875 623.835938 166.648438 619.929688 C 163.113281 616.027344 159.671875 612.039062 156.328125 607.96875 C 152.988281 603.894531 149.746094 599.742188 146.605469 595.511719 C 143.46875 591.28125 140.4375 586.976562 137.507812 582.59375 C 134.582031 578.214844 131.761719 573.765625 129.054688 569.246094 C 126.347656 564.726562 123.75 560.144531 121.265625 555.5 C 118.78125 550.851562 116.414062 546.148438 114.160156 541.386719 C 111.910156 536.625 109.773438 531.808594 107.757812 526.941406 C 105.742188 522.074219 103.84375 517.160156 102.070312 512.203125 C 100.296875 507.242188 98.644531 502.242188 97.113281 497.199219 C 95.585938 492.160156 94.179688 487.082031 92.898438 481.972656 C 91.617188 476.863281 90.464844 471.722656 89.4375 466.558594 C 88.410156 461.390625 87.507812 456.199219 86.734375 450.988281 C 85.960938 445.777344 85.316406 440.550781 84.800781 435.308594 C 84.285156 430.066406 83.898438 424.8125 83.640625 419.550781 C 83.378906 414.289062 83.25 409.027344 83.25 403.757812 M 259.457031 403.757812 C 259.457031 406.140625 259.515625 408.527344 259.632812 410.90625 C 259.75 413.289062 259.921875 415.667969 260.15625 418.039062 C 260.390625 420.414062 260.683594 422.78125 261.035156 425.140625 C 261.382812 427.496094 261.789062 429.847656 262.257812 432.1875 C 262.722656 434.523438 263.242188 436.851562 263.824219 439.164062 C 264.402344 441.476562 265.039062 443.773438 265.730469 446.058594 C 266.421875 448.339844 267.171875 450.601562 267.976562 452.847656 C 268.777344 455.09375 269.636719 457.316406 270.550781 459.523438 C 271.460938 461.726562 272.429688 463.902344 273.449219 466.058594 C 274.46875 468.214844 275.539062 470.34375 276.664062 472.449219 C 277.789062 474.550781 278.964844 476.625 280.191406 478.671875 C 281.417969 480.71875 282.691406 482.730469 284.015625 484.714844 C 285.34375 486.695312 286.714844 488.644531 288.136719 490.5625 C 289.558594 492.476562 291.023438 494.355469 292.535156 496.199219 C 294.050781 498.042969 295.609375 499.847656 297.210938 501.617188 C 298.8125 503.382812 300.457031 505.109375 302.140625 506.796875 C 303.828125 508.480469 305.554688 510.125 307.324219 511.726562 C 309.089844 513.328125 310.894531 514.886719 312.738281 516.398438 C 314.582031 517.910156 316.460938 519.378906 318.378906 520.800781 C 320.292969 522.21875 322.242188 523.59375 324.226562 524.917969 C 326.210938 526.242188 328.222656 527.519531 330.269531 528.746094 C 332.316406 529.96875 334.390625 531.144531 336.492188 532.269531 C 338.597656 533.394531 340.726562 534.464844 342.882812 535.484375 C 345.039062 536.503906 347.21875 537.472656 349.421875 538.382812 C 351.625 539.296875 353.851562 540.152344 356.097656 540.957031 C 358.34375 541.761719 360.605469 542.507812 362.890625 543.199219 C 365.171875 543.894531 367.46875 544.527344 369.78125 545.109375 C 372.097656 545.6875 374.421875 546.210938 376.761719 546.675781 C 379.101562 547.140625 381.449219 547.546875 383.808594 547.898438 C 386.167969 548.25 388.535156 548.539062 390.910156 548.773438 C 393.285156 549.007812 395.660156 549.183594 398.042969 549.300781 C 400.425781 549.417969 402.808594 549.476562 405.195312 549.476562 C 407.578125 549.476562 409.964844 549.417969 412.34375 549.300781 C 414.726562 549.183594 417.105469 549.007812 419.480469 548.773438 C 421.851562 548.539062 424.21875 548.25 426.578125 547.898438 C 428.9375 547.546875 431.289062 547.140625 433.625 546.675781 C 435.964844 546.210938 438.292969 545.6875 440.605469 545.109375 C 442.917969 544.527344 445.21875 543.894531 447.5 543.199219 C 449.78125 542.507812 452.046875 541.761719 454.292969 540.957031 C 456.539062 540.152344 458.761719 539.296875 460.964844 538.382812 C 463.167969 537.472656 465.351562 536.503906 467.503906 535.484375 C 469.660156 534.464844 471.792969 533.394531 473.894531 532.269531 C 476 531.144531 478.074219 529.96875 480.117188 528.746094 C 482.164062 527.519531 484.179688 526.242188 486.164062 524.917969 C 488.144531 523.59375 490.09375 522.21875 492.011719 520.800781 C 493.925781 519.378906 495.804688 517.910156 497.648438 516.398438 C 499.492188 514.886719 501.300781 513.328125 503.066406 511.726562 C 504.832031 510.125 506.5625 508.480469 508.246094 506.796875 C 509.933594 505.109375 511.578125 503.382812 513.179688 501.617188 C 514.78125 499.847656 516.339844 498.042969 517.851562 496.199219 C 519.363281 494.355469 520.832031 492.476562 522.253906 490.5625 C 523.671875 488.644531 525.046875 486.695312 526.371094 484.714844 C 527.695312 482.730469 528.972656 480.71875 530.199219 478.671875 C 531.425781 476.625 532.601562 474.550781 533.722656 472.449219 C 534.847656 470.34375 535.921875 468.214844 536.941406 466.058594 C 537.960938 463.902344 538.925781 461.726562 539.839844 459.523438 C 540.753906 457.316406 541.609375 455.09375 542.414062 452.847656 C 543.21875 450.601562 543.964844 448.339844 544.65625 446.058594 C 545.351562 443.773438 545.984375 441.476562 546.566406 439.164062 C 547.144531 436.851562 547.667969 434.523438 548.132812 432.1875 C 548.597656 429.847656 549.003906 427.496094 549.355469 425.140625 C 549.707031 422.78125 549.996094 420.414062 550.230469 418.039062 C 550.464844 415.667969 550.640625 413.289062 550.757812 410.90625 C 550.875 408.527344 550.933594 406.140625 550.933594 403.757812 C 550.933594 401.371094 550.875 398.988281 550.757812 396.609375 C 550.640625 394.226562 550.464844 391.847656 550.230469 389.476562 C 549.996094 387.101562 549.707031 384.734375 549.355469 382.375 C 549.003906 380.015625 548.597656 377.667969 548.132812 375.328125 C 547.667969 372.992188 547.144531 370.664062 546.566406 368.351562 C 545.984375 366.039062 545.351562 363.738281 544.65625 361.457031 C 543.964844 359.175781 543.21875 356.910156 542.414062 354.667969 C 541.609375 352.421875 540.753906 350.195312 539.839844 347.992188 C 538.925781 345.789062 537.960938 343.609375 536.941406 341.457031 C 535.921875 339.300781 534.847656 337.167969 533.722656 335.066406 C 532.601562 332.964844 531.425781 330.890625 530.199219 328.84375 C 528.972656 326.796875 527.695312 324.785156 526.371094 322.800781 C 525.046875 320.816406 523.671875 318.867188 522.253906 316.953125 C 520.832031 315.039062 519.363281 313.160156 517.851562 311.316406 C 516.339844 309.472656 514.78125 307.667969 513.179688 305.898438 C 511.578125 304.132812 509.933594 302.40625 508.246094 300.71875 C 506.5625 299.03125 504.832031 297.390625 503.066406 295.789062 C 501.300781 294.1875 499.492188 292.628906 497.648438 291.117188 C 495.804688 289.601562 493.925781 288.136719 492.011719 286.714844 C 490.09375 285.296875 488.144531 283.921875 486.164062 282.597656 C 484.179688 281.273438 482.164062 279.996094 480.117188 278.769531 C 478.074219 277.546875 476 276.371094 473.894531 275.246094 C 471.792969 274.121094 469.660156 273.050781 467.503906 272.03125 C 465.351562 271.011719 463.167969 270.042969 460.964844 269.132812 C 458.761719 268.21875 456.539062 267.359375 454.292969 266.558594 C 452.046875 265.753906 449.78125 265.007812 447.5 264.3125 C 445.21875 263.621094 442.917969 262.984375 440.605469 262.40625 C 438.292969 261.828125 435.964844 261.304688 433.625 260.839844 C 431.289062 260.375 428.9375 259.964844 426.578125 259.617188 C 424.21875 259.265625 421.851562 258.976562 419.480469 258.742188 C 417.105469 258.507812 414.726562 258.332031 412.34375 258.214844 C 409.964844 258.097656 407.578125 258.039062 405.195312 258.039062 C 402.808594 258.039062 400.425781 258.097656 398.042969 258.214844 C 395.660156 258.332031 393.285156 258.507812 390.910156 258.742188 C 388.535156 258.976562 386.167969 259.265625 383.808594 259.617188 C 381.449219 259.964844 379.101562 260.375 376.761719 260.839844 C 374.421875 261.304688 372.097656 261.828125 369.78125 262.40625 C 367.46875 262.984375 365.171875 263.621094 362.890625 264.3125 C 360.605469 265.007812 358.34375 265.753906 356.097656 266.558594 C 353.851562 267.359375 351.625 268.21875 349.421875 269.132812 C 347.21875 270.042969 345.039062 271.011719 342.882812 272.03125 C 340.726562 273.050781 338.597656 274.121094 336.492188 275.246094 C 334.390625 276.371094 332.316406 277.546875 330.269531 278.769531 C 328.222656 279.996094 326.210938 281.273438 324.226562 282.597656 C 322.242188 283.921875 320.292969 285.296875 318.378906 286.714844 C 316.460938 288.136719 314.582031 289.601562 312.738281 291.117188 C 310.894531 292.628906 309.089844 294.1875 307.324219 295.789062 C 305.554688 297.390625 303.828125 299.03125 302.140625 300.71875 C 300.457031 302.40625 298.8125 304.132812 297.210938 305.898438 C 295.609375 307.667969 294.050781 309.472656 292.535156 311.316406 C 291.023438 313.160156 289.558594 315.039062 288.136719 316.953125 C 286.714844 318.867188 285.34375 320.816406 284.015625 322.800781 C 282.691406 324.785156 281.417969 326.796875 280.191406 328.84375 C 278.964844 330.890625 277.789062 332.964844 276.664062 335.066406 C 275.539062 337.167969 274.46875 339.300781 273.449219 341.457031 C 272.429688 343.609375 271.460938 345.789062 270.550781 347.992188 C 269.636719 350.195312 268.777344 352.421875 267.976562 354.667969 C 267.171875 356.910156 266.421875 359.175781 265.730469 361.457031 C 265.039062 363.738281 264.402344 366.039062 263.824219 368.351562 C 263.242188 370.664062 262.722656 372.992188 262.257812 375.328125 C 261.789062 377.667969 261.382812 380.015625 261.03125 382.375 C 260.683594 384.734375 260.390625 387.101562 260.15625 389.476562 C 259.921875 391.847656 259.75 394.226562 259.632812 396.609375 C 259.515625 398.988281 259.457031 401.371094 259.457031 403.757812 Z M 259.457031 403.757812 " fill-opacity="0.0118" fill-rule="nonzero"/>
<g fill="#000000" fill-opacity="1">
<g transform="translate(398.478052, 605.235942)">
<g>
<path d="M -30.78125 71.5625 L -62.15625 63.296875 C -70.039062 61.222656 -76.625 57.820312 -81.90625 53.09375 C -87.1875 48.363281 -90.769531 42.734375 -92.65625 36.203125 C -94.539062 29.679688 -94.519531 22.769531 -92.59375 15.46875 C -90.675781 8.164062 -87.289062 2.140625 -82.4375 -2.609375 C -77.582031 -7.367188 -71.691406 -10.507812 -64.765625 -12.03125 C -57.847656 -13.550781 -50.445312 -13.273438 -42.5625 -11.203125 L -11.1875 -2.9375 Z M -44.375 -1.765625 C -50.40625 -3.347656 -56.015625 -3.566406 -61.203125 -2.421875 C -66.390625 -1.285156 -70.78125 1.0625 -74.375 4.625 C -77.96875 8.1875 -80.492188 12.734375 -81.953125 18.265625 C -83.410156 23.796875 -83.453125 29 -82.078125 33.875 C -80.703125 38.757812 -78.035156 42.972656 -74.078125 46.515625 C -70.117188 50.054688 -65.125 52.617188 -59.09375 54.203125 L -38.96875 59.5 L -24.25 3.53125 Z M -44.375 -1.765625 "/>
</g>
</g>
</g>
<g fill="#000000" fill-opacity="1">
<g transform="translate(322.041508, 585.008169)"><g>
<path d="M -58.796875 31.390625 C -65.492188 26.878906 -69.515625 21.78125 -70.859375 16.09375 C -72.203125 10.40625 -70.6875 4.3125 -66.3125 -2.1875 L -46.640625 -31.40625 L -38.34375 -25.8125 L -42.640625 -19.421875 C -39.660156 -20.703125 -36.414062 -21.019531 -32.90625 -20.375 C -29.40625 -19.726562 -25.804688 -18.160156 -22.109375 -15.671875 C -16.679688 -12.023438 -13.21875 -7.796875 -11.71875 -2.984375 C -10.21875 1.816406 -10.90625 6.347656 -13.78125 10.609375 C -16.644531 14.867188 -20.5 17.25 -25.34375 17.75 C -30.195312 18.25 -36 16.226562 -42.75 11.6875 L -56.640625 2.34375 L -57.796875 4.078125 C -60.347656 7.847656 -61.203125 11.472656 -60.359375 14.953125 C -59.515625 18.429688 -56.960938 21.601562 -52.703125 24.46875 C -49.847656 26.394531 -46.734375 27.804688 -43.359375 28.703125 C -39.984375 29.609375 -36.820312 29.910156 -33.875 29.609375 L -34.640625 38.625 C -38.484375 38.957031 -42.492188 38.488281 -46.671875 37.21875 C -50.859375 35.957031 -54.898438 34.015625 -58.796875 31.390625 Z M -28.09375 -9.890625 C -31.445312 -12.148438 -34.835938 -13.351562 -38.265625 -13.5 C -41.703125 -13.644531 -44.894531 -12.71875 -47.84375 -10.71875 L -52.390625 -3.953125 L -38.859375 5.140625 C -31.441406 10.140625 -26.054688 10.144531 -22.703125 5.15625 C -21.054688 2.71875 -20.707031 0.164062 -21.65625 -2.5 C -22.601562 -5.175781 -24.75 -7.640625 -28.09375 -9.890625 Z M -28.09375 -9.890625 "/>
</g>
</g>
</g>
<g fill="#000000" fill-opacity="1">
<g transform="translate(274.724353, 552.938039)">
<g>
<path d="M -31.375 -29.328125 C -29.375 -29.066406 -27.347656 -28.328125 -25.296875 -27.109375 C -23.242188 -25.898438 -21.40625 -24.40625 -19.78125 -22.625 C -15.8125 -18.289062 -13.90625 -13.867188 -14.0625 -9.359375 C -14.21875 -4.847656 -16.460938 -0.613281 -20.796875 3.34375 L -44.453125 24.921875 L -37.765625 32.234375 L -44.1875 38.109375 L -50.875 30.796875 L -60.296875 39.40625 L -67.421875 31.59375 L -58 22.984375 L -69.265625 10.640625 L -62.84375 4.765625 L -51.578125 17.109375 L -28.25 -4.171875 C -25.914062 -6.304688 -24.65625 -8.519531 -24.46875 -10.8125 C -24.28125 -13.113281 -25.175781 -15.347656 -27.15625 -17.515625 C -29.332031 -19.898438 -31.863281 -21.3125 -34.75 -21.75 Z M -31.375 -29.328125 "/>
</g>
</g>
</g>
<g fill="#000000" fill-opacity="1">
<g transform="translate(248.0071, 526.958262)">
<g>
<path d="M -66.65625 0.90625 C -70.53125 -6.164062 -71.765625 -12.535156 -70.359375 -18.203125 C -68.953125 -23.878906 -64.804688 -28.601562 -57.921875 -32.375 L -27.046875 -49.3125 L -22.21875 -40.53125 L -28.96875 -36.828125 C -25.738281 -36.578125 -22.710938 -35.363281 -19.890625 -33.1875 C -17.078125 -31.019531 -14.59375 -27.972656 -12.4375 -24.046875 C -9.300781 -18.328125 -8.171875 -12.988281 -9.046875 -8.03125 C -9.921875 -3.070312 -12.609375 0.640625 -17.109375 3.109375 C -21.609375 5.578125 -26.125 5.921875 -30.65625 4.140625 C -35.195312 2.359375 -39.425781 -2.097656 -43.34375 -9.234375 L -51.390625 -23.90625 L -53.234375 -22.90625 C -57.222656 -20.71875 -59.640625 -17.878906 -60.484375 -14.390625 C -61.335938 -10.910156 -60.53125 -6.921875 -58.0625 -2.421875 C -56.40625 0.597656 -54.285156 3.28125 -51.703125 5.625 C -49.117188 7.976562 -46.441406 9.691406 -43.671875 10.765625 L -48.5 18.4375 C -52.0625 16.957031 -55.410156 14.695312 -58.546875 11.65625 C -61.691406 8.613281 -64.394531 5.03125 -66.65625 0.90625 Z M -20.421875 -21.6875 C -22.367188 -25.226562 -24.832031 -27.851562 -27.8125 -29.5625 C -30.789062 -31.269531 -34.050781 -31.90625 -37.59375 -31.46875 L -44.734375 -27.5625 L -36.890625 -13.265625 C -32.585938 -5.421875 -27.800781 -2.941406 -22.53125 -5.828125 C -19.957031 -7.242188 -18.476562 -9.351562 -18.09375 -12.15625 C -17.707031 -14.96875 -18.484375 -18.144531 -20.421875 -21.6875 Z M -20.421875 -21.6875 "/>
</g>
</g>
</g>
<g fill="#000000" fill-opacity="1">
<g transform="translate(220.947212, 475.362919)">
<g/>
</g>
</g>
<g fill="#000000" fill-opacity="1">
<g transform="translate(211.730881, 454.894927)">
<g>
<path d="M -2.109375 -33.953125 C -1.597656 -28.179688 -2 -22.53125 -3.3125 -17 C -4.632812 -11.476562 -6.582031 -7.054688 -9.15625 -3.734375 L -18.078125 -7.015625 C -15.703125 -10.179688 -13.890625 -14.113281 -12.640625 -18.8125 C -11.398438 -23.519531 -10.992188 -28.289062 -11.421875 -33.125 C -11.984375 -39.476562 -13.476562 -44.132812 -15.90625 -47.09375 C -18.34375 -50.050781 -21.351562 -51.375 -24.9375 -51.0625 C -27.570312 -50.820312 -29.632812 -49.769531 -31.125 -47.90625 C -32.613281 -46.050781 -33.679688 -43.820312 -34.328125 -41.21875 C -34.984375 -38.625 -35.660156 -34.972656 -36.359375 -30.265625 C -37.234375 -24.378906 -38.207031 -19.597656 -39.28125 -15.921875 C -40.363281 -12.253906 -42.238281 -9.03125 -44.90625 -6.25 C -47.570312 -3.46875 -51.351562 -1.863281 -56.25 -1.4375 C -60.34375 -1.070312 -64.125 -1.828125 -67.59375 -3.703125 C -71.070312 -5.578125 -73.988281 -8.617188 -76.34375 -12.828125 C -78.707031 -17.035156 -80.179688 -22.390625 -80.765625 -28.890625 C -81.160156 -33.421875 -80.96875 -37.929688 -80.1875 -42.421875 C -79.40625 -46.910156 -78.054688 -50.828125 -76.140625 -54.171875 L -67.046875 -51.3125 C -68.816406 -47.914062 -70.066406 -44.34375 -70.796875 -40.59375 C -71.535156 -36.851562 -71.753906 -33.226562 -71.453125 -29.71875 C -70.898438 -23.5 -69.351562 -18.9375 -66.8125 -16.03125 C -64.269531 -13.132812 -61.207031 -11.847656 -57.625 -12.171875 C -54.988281 -12.398438 -52.925781 -13.460938 -51.4375 -15.359375 C -49.957031 -17.253906 -48.875 -19.539062 -48.1875 -22.21875 C -47.5 -24.894531 -46.84375 -28.503906 -46.21875 -33.046875 C -45.34375 -38.941406 -44.363281 -43.703125 -43.28125 -47.328125 C -42.195312 -50.960938 -40.34375 -54.164062 -37.71875 -56.9375 C -35.09375 -59.707031 -31.367188 -61.304688 -26.546875 -61.734375 C -22.523438 -62.085938 -18.753906 -61.3125 -15.234375 -59.40625 C -11.710938 -57.507812 -8.785156 -54.414062 -6.453125 -50.125 C -4.128906 -45.84375 -2.679688 -40.453125 -2.109375 -33.953125 Z M -2.109375 -33.953125 "/>
</g>
</g>
</g>
<g fill="#000000" fill-opacity="1">
<g transform="translate(205.592164, 396.783615)">
<g>
<path d="M 7.4375 -34.65625 C 6.289062 -28.820312 4.007812 -23.863281 0.59375 -19.78125 C -2.8125 -15.695312 -6.976562 -12.789062 -11.90625 -11.0625 C -16.84375 -9.34375 -22.113281 -9.035156 -27.71875 -10.140625 C -33.34375 -11.234375 -38.113281 -13.503906 -42.03125 -16.953125 C -45.957031 -20.410156 -48.71875 -24.664062 -50.3125 -29.71875 C -51.90625 -34.78125 -52.128906 -40.226562 -50.984375 -46.0625 C -49.972656 -51.25 -48.03125 -55.671875 -45.15625 -59.328125 C -42.28125 -62.992188 -38.640625 -65.550781 -34.234375 -67 L -30.703125 -58.125 C -33.785156 -56.863281 -36.269531 -55.03125 -38.15625 -52.625 C -40.039062 -50.226562 -41.300781 -47.410156 -41.9375 -44.171875 C -42.664062 -40.429688 -42.492188 -36.90625 -41.421875 -33.59375 C -40.347656 -30.28125 -38.445312 -27.476562 -35.71875 -25.1875 C -32.988281 -22.90625 -29.640625 -21.378906 -25.671875 -20.609375 C -21.648438 -19.816406 -17.941406 -19.96875 -14.546875 -21.0625 C -11.160156 -22.15625 -8.347656 -24.035156 -6.109375 -26.703125 C -3.867188 -29.367188 -2.382812 -32.570312 -1.65625 -36.3125 C -1.019531 -39.550781 -1.125 -42.640625 -1.96875 -45.578125 C -2.820312 -48.515625 -4.445312 -51.144531 -6.84375 -53.46875 L -0.328125 -60.390625 C 3.203125 -57.378906 5.628906 -53.632812 6.953125 -49.15625 C 8.285156 -44.675781 8.445312 -39.84375 7.4375 -34.65625 Z M 7.4375 -34.65625 "/>
</g>
</g>
</g>
<g fill="#000000" fill-opacity="1">
<g transform="translate(217.070924, 342.527462)">
<g>
<path d="M -50.046875 -31.578125 L -46 -41.34375 L 7.875 -19.015625 L 3.828125 -9.25 Z M -58.390625 -40.75 C -59.179688 -38.851562 -60.445312 -37.53125 -62.1875 -36.78125 C -63.925781 -36.039062 -65.675781 -36.035156 -67.4375 -36.765625 C -69.207031 -37.492188 -70.457031 -38.742188 -71.1875 -40.515625 C -71.925781 -42.296875 -71.898438 -44.132812 -71.109375 -46.03125 C -70.328125 -47.925781 -69.078125 -49.253906 -67.359375 -50.015625 C -65.648438 -50.773438 -63.914062 -50.789062 -62.15625 -50.0625 C -60.332031 -49.300781 -59.050781 -48.03125 -58.3125 -46.25 C -57.582031 -44.476562 -57.609375 -42.644531 -58.390625 -40.75 Z M -58.390625 -40.75 "/>
</g>
</g>
</g>
<g fill="#000000" fill-opacity="1">
<g transform="translate(223.51269, 319.922861)">
<g>
<path d="M 11.8125 -68.015625 C 12.476562 -67.554688 13.3125 -66.890625 14.3125 -66.015625 L -12.515625 -27.046875 C -7.910156 -24.679688 -3.234375 -24.195312 1.515625 -25.59375 C 6.273438 -27 10.273438 -30.054688 13.515625 -34.765625 C 17.472656 -40.515625 18.722656 -46.472656 17.265625 -52.640625 L 26.1875 -53.578125 C 27.21875 -49.660156 27.285156 -45.625 26.390625 -41.46875 C 25.503906 -37.320312 23.691406 -33.253906 20.953125 -29.265625 C 17.453125 -24.179688 13.304688 -20.394531 8.515625 -17.90625 C 3.722656 -15.425781 -1.28125 -14.398438 -6.5 -14.828125 C -11.71875 -15.265625 -16.679688 -17.101562 -21.390625 -20.34375 C -26.046875 -23.550781 -29.53125 -27.484375 -31.84375 -32.140625 C -34.164062 -36.804688 -35.109375 -41.679688 -34.671875 -46.765625 C -34.242188 -51.859375 -32.445312 -56.703125 -29.28125 -61.296875 C -26.125 -65.890625 -22.265625 -69.269531 -17.703125 -71.4375 C -13.140625 -73.601562 -8.285156 -74.40625 -3.140625 -73.84375 C 1.992188 -73.289062 6.976562 -71.347656 11.8125 -68.015625 Z M -21.9375 -56.25 C -24.8125 -52.070312 -25.945312 -47.703125 -25.34375 -43.140625 C -24.738281 -38.585938 -22.546875 -34.660156 -18.765625 -31.359375 L 2.453125 -62.1875 C -1.941406 -64.476562 -6.390625 -65.101562 -10.890625 -64.0625 C -15.390625 -63.019531 -19.070312 -60.414062 -21.9375 -56.25 Z M -21.9375 -56.25 "/>
</g>
</g>
</g>
<g fill="#000000" fill-opacity="1">
<g transform="translate(253.930402, 271.846506)">
<g>
<path d="M -3.84375 -71.71875 C 1.988281 -76.28125 7.945312 -78.21875 14.03125 -77.53125 C 20.125 -76.84375 25.722656 -73.234375 30.828125 -66.703125 L 51.5 -40.265625 L 43.171875 -33.75 L 23.234375 -59.25 C 19.765625 -63.695312 16.078125 -66.207031 12.171875 -66.78125 C 8.265625 -67.363281 4.316406 -66.097656 0.328125 -62.984375 C -4.171875 -59.460938 -6.691406 -55.367188 -7.234375 -50.703125 C -7.773438 -46.035156 -6.125 -41.25 -2.28125 -36.34375 L 16.21875 -12.671875 L 7.890625 -6.171875 L -28.03125 -52.125 L -20.0625 -58.359375 L -14.640625 -51.421875 C -14.816406 -55.097656 -13.972656 -58.6875 -12.109375 -62.1875 C -10.242188 -65.695312 -7.488281 -68.875 -3.84375 -71.71875 Z M -3.84375 -71.71875 "/>
</g>
</g>
</g>
<g fill="#000000" fill-opacity="1">
<g transform="translate(306.004001, 232.005917)">
<g>
<path d="M 38 -20.015625 C 37.101562 -18.210938 35.742188 -16.539062 33.921875 -15 C 32.109375 -13.457031 30.09375 -12.207031 27.875 -11.25 C 22.476562 -8.925781 17.675781 -8.578125 13.46875 -10.203125 C 9.257812 -11.828125 5.992188 -15.335938 3.671875 -20.734375 L -8.96875 -50.15625 L -18.078125 -46.25 L -21.5 -54.25 L -12.390625 -58.15625 L -17.4375 -69.890625 L -7.734375 -74.0625 L -2.6875 -62.328125 L 12.671875 -68.921875 L 16.09375 -60.921875 L 0.734375 -54.328125 L 13.203125 -25.3125 C 14.453125 -22.414062 16.132812 -20.5 18.25 -19.5625 C 20.363281 -18.632812 22.769531 -18.75 25.46875 -19.90625 C 28.425781 -21.1875 30.585938 -23.117188 31.953125 -25.703125 Z M 38 -20.015625 "/>
</g>
</g>
</g>
<g fill="#000000" fill-opacity="1">
<g transform="translate(342.400884, 216.498468)">
<g>
<path d="M -4.296875 -59.03125 L 5.953125 -61.5625 L 19.96875 -4.9375 L 9.71875 -2.40625 Z M -1.859375 -71.1875 C -3.847656 -70.695312 -5.660156 -70.925781 -7.296875 -71.875 C -8.929688 -72.832031 -9.976562 -74.238281 -10.4375 -76.09375 C -10.894531 -77.945312 -10.628906 -79.695312 -9.640625 -81.34375 C -8.648438 -82.988281 -7.160156 -84.054688 -5.171875 -84.546875 C -3.171875 -85.035156 -1.359375 -84.816406 0.265625 -83.890625 C 1.898438 -82.972656 2.945312 -81.585938 3.40625 -79.734375 C 3.875 -77.816406 3.613281 -76.035156 2.625 -74.390625 C 1.632812 -72.742188 0.140625 -71.675781 -1.859375 -71.1875 Z M -1.859375 -71.1875 "/>
</g>
</g>
</g>
<g fill="#000000" fill-opacity="1">
<g transform="translate(365.4226, 209.020424)">
<g>
<path d="M 26.71875 -0.921875 C 21.96875 -0.640625 17.351562 -1.007812 12.875 -2.03125 C 8.40625 -3.050781 4.875 -4.472656 2.28125 -6.296875 L 6.171875 -14.921875 C 8.847656 -13.242188 12.050781 -11.957031 15.78125 -11.0625 C 19.507812 -10.175781 23.238281 -9.847656 26.96875 -10.078125 C 36.1875 -10.617188 40.640625 -13.523438 40.328125 -18.796875 C 40.222656 -20.554688 39.519531 -21.914062 38.21875 -22.875 C 36.925781 -23.832031 35.328125 -24.488281 33.421875 -24.84375 C 31.523438 -25.207031 28.835938 -25.582031 25.359375 -25.96875 C 20.640625 -26.425781 16.765625 -27.039062 13.734375 -27.8125 C 10.710938 -28.59375 8.070312 -30.054688 5.8125 -32.203125 C 3.550781 -34.347656 2.300781 -37.46875 2.0625 -41.5625 C 1.75 -46.84375 3.695312 -51.203125 7.90625 -54.640625 C 12.113281 -58.085938 17.914062 -60.03125 25.3125 -60.46875 C 29.195312 -60.695312 33.109375 -60.445312 37.046875 -59.71875 C 40.984375 -59 44.242188 -57.910156 46.828125 -56.453125 L 42.828125 -47.84375 C 37.878906 -50.625 32.179688 -51.820312 25.734375 -51.4375 C 21.273438 -51.175781 17.914062 -50.242188 15.65625 -48.640625 C 13.394531 -47.046875 12.335938 -45.035156 12.484375 -42.609375 C 12.585938 -40.710938 13.332031 -39.253906 14.71875 -38.234375 C 16.101562 -37.210938 17.78125 -36.5 19.75 -36.09375 C 21.726562 -35.695312 24.492188 -35.273438 28.046875 -34.828125 C 32.773438 -34.296875 36.613281 -33.65625 39.5625 -32.90625 C 42.507812 -32.164062 45.070312 -30.757812 47.25 -28.6875 C 49.425781 -26.613281 50.628906 -23.597656 50.859375 -19.640625 C 51.171875 -14.367188 49.164062 -10.046875 44.84375 -6.671875 C 40.53125 -3.296875 34.488281 -1.378906 26.71875 -0.921875 Z M 26.71875 -0.921875 "/>
</g>
</g>
</g>
<g fill="#000000" fill-opacity="1">
<g transform="translate(412.655205, 205.90886)">
<g>
<path d="M 42.8125 3.3125 C 41.082031 4.363281 39.039062 5.054688 36.6875 5.390625 C 34.332031 5.722656 31.957031 5.703125 29.5625 5.328125 C 23.757812 4.410156 19.515625 2.144531 16.828125 -1.46875 C 14.140625 -5.082031 13.253906 -9.789062 14.171875 -15.59375 L 19.15625 -47.21875 L 9.375 -48.75 L 10.734375 -57.34375 L 20.515625 -55.8125 L 22.515625 -68.421875 L 32.953125 -66.765625 L 30.953125 -54.15625 L 47.46875 -51.546875 L 46.109375 -42.953125 L 29.59375 -45.5625 L 24.671875 -14.375 C 24.179688 -11.257812 24.578125 -8.742188 25.859375 -6.828125 C 27.148438 -4.921875 29.25 -3.738281 32.15625 -3.28125 C 35.34375 -2.78125 38.203125 -3.253906 40.734375 -4.703125 Z M 42.8125 3.3125 "/>
</g>
</g>
</g>
<g fill="#000000" fill-opacity="1">
<g transform="translate(451.787913, 212.253435)"><g/>
</g>
</g>
<g fill="#000000" fill-opacity="1">
<g transform="translate(475.597922, 219.77244)">
<g>
<path d="M 23.0625 -14.15625 C 21.132812 -15.0625 19.832031 -16.46875 19.15625 -18.375 C 18.476562 -20.28125 18.609375 -22.222656 19.546875 -24.203125 C 20.492188 -26.191406 21.910156 -27.507812 23.796875 -28.15625 C 25.691406 -28.800781 27.601562 -28.671875 29.53125 -27.765625 C 31.382812 -26.878906 32.640625 -25.503906 33.296875 -23.640625 C 33.960938 -21.785156 33.820312 -19.863281 32.875 -17.875 C 31.9375 -15.894531 30.53125 -14.554688 28.65625 -13.859375 C 26.78125 -13.171875 24.914062 -13.269531 23.0625 -14.15625 Z M 23.0625 -14.15625 "/>
</g>
</g>
</g>
<g fill="#000000" fill-opacity="1">
<g transform="translate(498.079336, 230.124378)">
<g/>
</g>
</g>
<g fill="#000000" fill-opacity="1">
<g transform="translate(518.33045, 239.179362)">
<g>
<path d="M 54.25 41.234375 L 47.4375 47.96875 L 8.125 8.21875 L 62.890625 -45.953125 L 101.125 -7.296875 L 94.328125 -0.5625 L 63.828125 -31.390625 L 47 -14.75 L 74.171875 12.703125 L 67.515625 19.28125 L 40.34375 -8.171875 L 22.671875 9.3125 Z M 54.25 41.234375 "/>
</g>
</g>
</g>
<g fill="#000000" fill-opacity="1">
<g transform="translate(563.779247, 282.480797)">
<g>
<path d="M 102.0625 21.875 L 28.953125 58.234375 L 24.453125 49.15625 L 32.734375 45.03125 C 28.785156 44.375 25.253906 42.8125 22.140625 40.34375 C 19.035156 37.882812 16.519531 34.71875 14.59375 30.84375 C 12.082031 25.78125 10.945312 20.6875 11.1875 15.5625 C 11.425781 10.445312 13.003906 5.753906 15.921875 1.484375 C 18.835938 -2.785156 22.921875 -6.226562 28.171875 -8.84375 C 33.429688 -11.457031 38.625 -12.625 43.75 -12.34375 C 48.882812 -12.070312 53.566406 -10.488281 57.796875 -7.59375 C 62.023438 -4.707031 65.394531 -0.734375 67.90625 4.328125 C 69.769531 8.078125 70.78125 11.878906 70.9375 15.734375 C 71.09375 19.585938 70.304688 23.25 68.578125 26.71875 L 97.359375 12.40625 Z M 23.265625 27.53125 C 24.898438 30.8125 27.15625 33.410156 30.03125 35.328125 C 32.914062 37.242188 36.128906 38.265625 39.671875 38.390625 C 43.210938 38.515625 46.789062 37.679688 50.40625 35.890625 C 54.019531 34.085938 56.847656 31.734375 58.890625 28.828125 C 60.929688 25.929688 62.035156 22.765625 62.203125 19.328125 C 62.378906 15.890625 61.648438 12.53125 60.015625 9.25 C 58.347656 5.882812 56.097656 3.25 53.265625 1.34375 C 50.429688 -0.5625 47.234375 -1.59375 43.671875 -1.75 C 40.117188 -1.90625 36.535156 -1.082031 32.921875 0.71875 C 29.304688 2.507812 26.484375 4.867188 24.453125 7.796875 C 22.429688 10.734375 21.3125 13.914062 21.09375 17.34375 C 20.875 20.769531 21.597656 24.164062 23.265625 27.53125 Z M 23.265625 27.53125 "/>
</g>
</g>
</g>
<g fill="#000000" fill-opacity="1">
<g transform="translate(593.838145, 338.998729)">
<g>
<path d="M 66.828125 55.515625 L 9.078125 63.734375 L 7.65625 53.8125 L 16.359375 52.578125 C 13.097656 50.890625 10.398438 48.4375 8.265625 45.21875 C 6.140625 42.007812 4.789062 38.375 4.21875 34.3125 C 3.125 26.601562 4.382812 20.234375 8 15.203125 C 11.613281 10.171875 17.5625 7.066406 25.84375 5.890625 L 59.078125 1.15625 L 60.578125 11.609375 L 28.53125 16.171875 C 22.945312 16.960938 18.90625 18.90625 16.40625 22 C 13.914062 25.101562 13.03125 29.160156 13.75 34.171875 C 14.53125 39.691406 16.820312 43.8125 20.625 46.53125 C 24.425781 49.25 29.378906 50.175781 35.484375 49.3125 L 65.34375 45.0625 Z M 66.828125 55.515625 "/>
</g>
</g>
</g>
<g fill="#000000" fill-opacity="1">
<g transform="translate(603.544416, 402.376167)">
<g>
<path d="M -6.03125 34.9375 C -5.132812 29.050781 -3.0625 24 0.1875 19.78125 C 3.4375 15.570312 7.488281 12.503906 12.34375 10.578125 C 17.207031 8.660156 22.460938 8.132812 28.109375 9 C 33.773438 9.875 38.632812 11.957031 42.6875 15.25 C 46.75 18.539062 49.675781 22.675781 51.46875 27.65625 C 53.257812 32.644531 53.707031 38.082031 52.8125 43.96875 C 52.007812 49.1875 50.242188 53.679688 47.515625 57.453125 C 44.785156 61.234375 41.253906 63.9375 36.921875 65.5625 L 33.015625 56.84375 C 36.046875 55.457031 38.457031 53.523438 40.25 51.046875 C 42.039062 48.578125 43.1875 45.710938 43.6875 42.453125 C 44.257812 38.679688 43.941406 35.160156 42.734375 31.890625 C 41.535156 28.628906 39.523438 25.910156 36.703125 23.734375 C 33.890625 21.554688 30.484375 20.160156 26.484375 19.546875 C 22.429688 18.921875 18.734375 19.222656 15.390625 20.453125 C 12.046875 21.691406 9.304688 23.6875 7.171875 26.4375 C 5.046875 29.1875 3.695312 32.445312 3.125 36.21875 C 2.625 39.476562 2.851562 42.554688 3.8125 45.453125 C 4.78125 48.347656 6.503906 50.914062 8.984375 53.15625 L 2.765625 60.328125 C -0.878906 57.472656 -3.457031 53.832031 -4.96875 49.40625 C -6.476562 44.976562 -6.832031 40.15625 -6.03125 34.9375 Z M -6.03125 34.9375 "/>
</g>
</g>
</g>
<g fill="#000000" fill-opacity="1">
<g transform="translate(596.99555, 455.171244)">
<g>
<path d="M 40.609375 52.859375 C 37.265625 60.203125 32.894531 65.003906 27.5 67.265625 C 22.113281 69.523438 15.851562 69.03125 8.71875 65.78125 L -23.328125 51.171875 L -19.171875 42.0625 L -12.15625 45.25 C -13.90625 42.519531 -14.75 39.375 -14.6875 35.8125 C -14.632812 32.25 -13.679688 28.4375 -11.828125 24.375 C -9.117188 18.425781 -5.515625 14.316406 -1.015625 12.046875 C 3.472656 9.785156 8.054688 9.71875 12.734375 11.84375 C 17.398438 13.96875 20.375 17.382812 21.65625 22.09375 C 22.945312 26.800781 21.90625 32.851562 18.53125 40.25 L 11.59375 55.484375 L 13.5 56.34375 C 17.644531 58.238281 21.363281 58.484375 24.65625 57.078125 C 27.945312 55.671875 30.65625 52.632812 32.78125 47.96875 C 34.21875 44.832031 35.101562 41.523438 35.4375 38.046875 C 35.78125 34.578125 35.550781 31.410156 34.75 28.546875 L 43.796875 27.828125 C 44.742188 31.566406 44.9375 35.601562 44.375 39.9375 C 43.820312 44.269531 42.566406 48.578125 40.609375 52.859375 Z M -5.140625 29.34375 C -6.816406 33.019531 -7.445312 36.5625 -7.03125 39.96875 C -6.613281 43.382812 -5.175781 46.378906 -2.71875 48.953125 L 4.6875 52.328125 L 11.4375 37.5 C 15.15625 29.351562 14.28125 24.035156 8.8125 21.546875 C 6.144531 20.328125 3.566406 20.40625 1.078125 21.78125 C -1.398438 23.15625 -3.472656 25.675781 -5.140625 29.34375 Z M -5.140625 29.34375 "/>
</g>
</g>
</g>
<g fill="#000000" fill-opacity="1">
<g transform="translate(573.127597, 507.111267)">
<g>
<path d="M -23.78125 35.765625 C -23.851562 33.742188 -23.457031 31.617188 -22.59375 29.390625 C -21.738281 27.171875 -20.566406 25.113281 -19.078125 23.21875 C -15.453125 18.601562 -11.398438 16 -6.921875 15.40625 C -2.453125 14.820312 2.085938 16.34375 6.703125 19.96875 L 31.875 39.75 L 38 31.953125 L 44.84375 37.328125 L 38.71875 45.125 L 48.765625 53.015625 L 42.234375 61.3125 L 32.1875 53.421875 L 21.859375 66.578125 L 15.015625 61.203125 L 25.34375 48.046875 L 0.515625 28.546875 C -1.960938 26.585938 -4.347656 25.707031 -6.640625 25.90625 C -8.941406 26.101562 -11.003906 27.359375 -12.828125 29.671875 C -14.816406 32.203125 -15.789062 34.929688 -15.75 37.859375 Z M -23.78125 35.765625 "/>
</g>
</g>
</g>
<g fill="#000000" fill-opacity="1">
<g transform="translate(552.332034, 537.759937)">
<g>
<path d="M -28.109375 20.875 C -23.515625 17.332031 -18.601562 15.164062 -13.375 14.375 C -8.144531 13.582031 -3.125 14.171875 1.6875 16.140625 C 6.507812 18.117188 10.671875 21.375 14.171875 25.90625 C 17.671875 30.4375 19.765625 35.28125 20.453125 40.4375 C 21.148438 45.601562 20.445312 50.597656 18.34375 55.421875 C 16.238281 60.253906 12.890625 64.441406 8.296875 67.984375 C 3.710938 71.523438 -1.164062 73.691406 -6.34375 74.484375 C -11.519531 75.285156 -16.515625 74.695312 -21.328125 72.71875 C -26.148438 70.75 -30.3125 67.5 -33.8125 62.96875 C -37.3125 58.4375 -39.40625 53.585938 -40.09375 48.421875 C -40.789062 43.265625 -40.113281 38.269531 -38.0625 33.4375 C -36.007812 28.601562 -32.691406 24.414062 -28.109375 20.875 Z M -22.453125 28.171875 C -25.410156 30.460938 -27.535156 33.195312 -28.828125 36.375 C -30.128906 39.550781 -30.492188 42.890625 -29.921875 46.390625 C -29.347656 49.890625 -27.828125 53.238281 -25.359375 56.4375 C -22.890625 59.632812 -20.035156 61.945312 -16.796875 63.375 C -13.554688 64.8125 -10.242188 65.289062 -6.859375 64.8125 C -3.484375 64.332031 -0.316406 62.945312 2.640625 60.65625 C 5.609375 58.363281 7.75 55.644531 9.0625 52.5 C 10.382812 49.351562 10.773438 46.019531 10.234375 42.5 C 9.691406 38.988281 8.1875 35.632812 5.71875 32.4375 C 3.25 29.238281 0.378906 26.929688 -2.890625 25.515625 C -6.160156 24.097656 -9.492188 23.613281 -12.890625 24.0625 C -16.296875 24.507812 -19.484375 25.878906 -22.453125 28.171875 Z M -22.453125 28.171875 "/>
</g>
</g>
</g>
<g fill="#000000" fill-opacity="1">
<g transform="translate(503.851308, 574.680866)">
<g>
<path d="M 0.96875 52.53125 C 0.632812 56.351562 -0.820312 59.789062 -3.40625 62.84375 C -6 65.894531 -9.648438 68.453125 -14.359375 70.515625 L -18.453125 61.140625 C -17.878906 60.960938 -17.125 60.671875 -16.1875 60.265625 C -10.945312 57.972656 -7.515625 54.609375 -5.890625 50.171875 C -4.265625 45.742188 -4.710938 40.640625 -7.234375 34.859375 L -18.859375 8.234375 L -9.171875 4.015625 L 14.171875 57.46875 L 4.890625 61.515625 Z M 0.96875 52.53125 "/>
</g>
</g>
</g>
<g fill="#000000" fill-opacity="1">
<g transform="translate(467.830669, 590.247329)">
<g/>
</g>
</g>
<g fill="#000000" fill-opacity="1">
<g transform="translate(443.727386, 596.74638)">
<g>
<path d="M -11.796875 24.34375 C -9.679688 24.082031 -7.820312 24.566406 -6.21875 25.796875 C -4.625 27.035156 -3.6875 28.75 -3.40625 30.9375 C -3.132812 33.113281 -3.617188 34.984375 -4.859375 36.546875 C -6.109375 38.117188 -7.789062 39.035156 -9.90625 39.296875 C -11.9375 39.554688 -13.734375 39.082031 -15.296875 37.875 C -16.859375 36.664062 -17.773438 34.972656 -18.046875 32.796875 C -18.328125 30.609375 -17.863281 28.71875 -16.65625 27.125 C -15.445312 25.53125 -13.828125 24.601562 -11.796875 24.34375 Z M -11.796875 24.34375 "/>
</g>
</g>
</g>
</svg>