<?xml version="1.0" encoding="UTF-8"?>
<svg id="Layer_1" data-name="Layer 1" xmlns="http://www.w3.org/2000/svg" viewBox="0 0 488.29 488.29">
  <defs>
    <style>
      .cls-1 {
        fill: #f4f0e8;
      }

      .cls-2 {
        fill: #3f4c3c;
      }
    </style>
  </defs>
  <rect class="cls-1" width="488.29" height="488.29"/>
  <g>
    <path class="cls-2" d="M455.55,131.48c-.13,3.94.24,44.64.09,49.77-.07,6.93,2.36,11.24-6.71,11.53-5.94-8.87-4.48-19.64-12.67-30.53-9.42-12.53-25.83-21.18-41.68-21.89-32.43-2.53-60.25,5.24-78.3,33.8-11.5,17.25-17.49,34.21-19.82,55.07-.57,4.08-1.33,8.83-6.21,10.01-27.06,7.69-83.17,14.55-88.51,47.34-.31,16.25,17.02,24.29,28.62,31.94,7.54,4.66,18.6,13.43,11.29,22.97-18.38,16.31-57.11,23.41-81.18,26.89-10.18,1.18-21.86,2.22-32.08,1.22-26.54.1-53.58-4.96-75.62-20.64C16.67,325.62.3,278.92,5.19,237.17c7.99-77.34,80.55-118.28,153.23-111.73,16.75.92,31.88,5.59,48.25,9.87,4.72,1.15,10.24-11.26,15.77-5.14l-.02,37.05.96,4.31.05,15.75c0,2.62-2.55,5.8-4.55,6.09s-6.35-1.34-6.98-3.46l-5.59-18.79c-9.75-29.85-45.84-36.6-73.93-34.69-17.7,1.1-33.62,8.73-47.32,19.39-53.02,44.57-47.61,165.11,19.12,194.5,14.33,5.85,29.35,6.84,44.51,6.43,12.45-1.28,41.43-4.5,41.56-11.65.57-17.02.12-69,.16-86.91-7.28-7.28-20.92-9.26-32.09-8.91-5.66.21-10.4-3.74-6.58-9.25.81-.89,3.42.18,4.93.18l92.64.08c1.32,0,4.55-1.21,4.95-2.04l1.06-11.07c16.44-82.49,104.39-116.41,179.4-92.31,10.89,2.9,12.13-6.49,17.12-6.78,1.16-.07,3.71,2.19,3.72,3.38Z"/>
    <g>
      <path class="cls-2" d="M129.3,466.54c-7.09-10.76-1.74-25.28,8.09-32.71,8.08-6.98,16.38-12.5,25.99-17.63,3.48-1.77,10.07-6.72,1.32-5.11-12.69,3.32-26.59,8.05-38.82,12.06-14.33,4.23-27.66,12.29-41.24,18.44-5.83,1.97-1.61-3.61,1.31-6.55,2.28-2.28,4.95-4.19,7.61-5.77,42.82-24.5,94.06-34.98,140.06-52.58,15.68-6.32,35.84-13.68,47.14-27.01,8.57-9.98,4.42-22.74-5.52-29.76-18.11-13.41-59.88-26.55-36.18-47.74,12.48-10.58,28.81-15.63,44.46-19.91,13.2-3.77,27-5.76,40.65-7.27,8.53-.64,18.59-.61,27.03-.85,16.32-.02,33.21.58,49.37,2.91,4.2.65,10.27,1.85,1.54,2.29-12.73.75-27.72.96-40.76,1.57-13.33.89-31.29,3.41-45.73,6.11-16.64,3.41-34.4,7.84-47.73,18.67-2.92,2.35-6.07,5.67-5.86,9.32,1.2,16.52,49.05,28.11,52.16,55.48.98,8.3-4.1,15.5-10.05,20.91-12.2,11.58-27.89,18.26-43.36,24.27-29.91,11.84-62.48,22.25-89.77,39.02-10.9,6.66-22.54,13.59-30.89,23.19-3.56,4.23-5.99,10.76-7,15.66-.45,1.99-1.31,6.24-3.74,3.1l-.08-.1Z"/>
      <path class="cls-2" d="M462.6,346.35c-28.76,28.63-109.14,29.88-144.14,12.45-2.01-1.12.09-6.33,1.39-7.94,2.57-3.18,3.19-8.11,1.77-11.53-1.64-4.56-6.75-14.87-9.02-19.26-6.51-12.29-12.26-25.75-13.54-39.71,0,0,1.26-2.76,1.26-2.76.29-.64,2.12.83,2.44,1.48,8.93,31.57,30.58,66.84,64.23,74.72,0,0,14.19,2.9,14.19,2.9l8,.39,7.47-.38c11.51-.59,29.51-4,37.61-10.53l9.99-8.06c10.29-8.3,9.65-21.63,16.35-24.8,1.54-.73,4.64,3.33,4.7,5.04l.5,14.51c.19,5.43,1.22,8.73-3.22,13.48Z"/>
    </g>
  </g>
</svg>